<?xml version="1.0" standalone="no"?>
<!DOCTYPE svg PUBLIC "-//W3C//DTD SVG 20010904//EN"
 "http://www.w3.org/TR/2001/REC-SVG-20010904/DTD/svg10.dtd">
<svg version="1.0" xmlns="http://www.w3.org/2000/svg"
 width="1024.000000pt" height="1024.000000pt" viewBox="0 0 1024.000000 1024.000000"
 preserveAspectRatio="xMidYMid meet">
<metadata>
Created by potrace 1.14, written by Peter Selinger 2001-2017
</metadata>
<g transform="translate(0.000000,1024.000000) scale(0.100000,-0.100000)"
fill="#000000" stroke="none">
<path d="M4607 9844 l-77 -55 0 -80 c0 -62 3 -78 13 -73 6 4 39 27 72 51 l60
44 3 -451 2 -450 75 0 75 0 0 535 0 535 -73 0 c-72 0 -73 0 -150 -56z"/>
<path d="M5190 9745 l0 -155 75 0 75 0 0 80 0 80 140 0 c77 0 140 -3 140 -7 0
-5 -80 -210 -178 -458 l-178 -450 80 -3 c43 -2 83 1 87 5 4 4 87 208 183 452
l176 444 0 83 0 84 -300 0 -300 0 0 -155z"/>
<path d="M1500 5645 l0 -2535 380 0 380 0 2 1108 3 1107 1003 3 1002 2 0
-1110 0 -1110 385 0 385 0 0 2535 0 2535 -385 0 -385 0 0 -1085 0 -1085 -1005
0 -1005 0 0 1085 0 1085 -380 0 -380 0 0 -2535z"/>
<path d="M6050 5645 l0 -2535 360 0 360 0 0 186 0 186 67 -62 c180 -169 372
-271 603 -321 85 -19 136 -23 265 -24 222 0 371 31 540 111 222 104 439 314
539 519 106 219 134 431 143 1070 8 579 -14 943 -68 1150 -73 281 -310 575
-568 704 -284 143 -684 173 -962 71 -148 -54 -333 -167 -479 -295 l-75 -65 -3
920 -2 920 -360 0 -360 0 0 -2535z m1684 365 c143 -36 266 -123 331 -234 38
-66 91 -220 116 -338 20 -96 21 -132 21 -513 0 -380 -1 -418 -21 -518 -52
-260 -139 -414 -289 -514 -113 -74 -314 -112 -498 -93 -174 18 -290 74 -403
195 -132 141 -188 337 -212 733 -14 218 -3 492 26 669 62 385 250 593 575 636
73 10 278 -3 354 -23z"/>
<path d="M2310 1815 l0 -475 70 0 70 0 2 208 3 207 188 3 187 2 0 -210 0 -210
75 0 75 0 0 475 0 475 -75 0 -75 0 0 -205 0 -205 -187 2 -188 3 -3 203 -2 202
-70 0 -70 0 0 -475z"/>
<path d="M3950 1815 l0 -475 65 0 65 0 0 35 0 36 38 -30 c97 -78 260 -55 327
48 33 49 50 179 41 323 -8 142 -34 199 -110 243 -83 48 -175 42 -254 -15 l-42
-30 0 170 0 170 -65 0 -65 0 0 -475z m345 53 c42 -33 55 -76 55 -180 0 -115
-12 -159 -51 -192 -38 -33 -108 -35 -155 -7 -44 27 -59 76 -59 196 0 152 34
204 136 205 33 0 54 -6 74 -22z"/>
<path d="M4700 2225 l0 -65 65 0 65 0 0 65 0 65 -65 0 -65 0 0 -65z"/>
<path d="M5070 1815 l0 -475 70 0 70 0 0 30 0 30 38 -24 c94 -62 205 -56 286
15 63 56 76 103 76 286 0 182 -10 223 -69 284 -39 39 -55 49 -104 59 -80 16
-148 -2 -204 -53 l-23 -20 0 171 0 172 -70 0 -70 0 0 -475z m339 62 c43 -21
63 -70 69 -166 9 -173 -35 -246 -146 -238 -98 7 -127 63 -120 234 4 110 18
144 69 170 31 16 97 16 128 0z"/>
<path d="M5820 2225 l0 -65 70 0 70 0 0 65 0 65 -70 0 -70 0 0 -65z"/>
<path d="M3347 2020 c-51 -13 -87 -33 -116 -64 -28 -29 -24 -37 39 -81 37 -25
42 -26 53 -12 41 55 215 47 246 -11 6 -12 11 -41 11 -65 l0 -45 -137 -4 c-155
-3 -181 -12 -236 -81 -42 -51 -50 -143 -18 -204 42 -83 111 -118 231 -118 61
0 82 5 112 23 20 13 39 28 42 35 2 7 5 -3 5 -20 l1 -33 65 0 65 0 0 265 c0
289 -3 307 -56 357 -16 15 -49 34 -74 43 -55 20 -182 28 -233 15z m230 -451
c-8 -92 -24 -104 -136 -104 -81 0 -92 2 -115 24 -17 16 -26 35 -26 56 0 66 36
83 184 84 l99 1 -6 -61z"/>
<path d="M7231 2021 c-18 -5 -53 -23 -77 -40 l-44 -31 0 35 0 35 -65 0 -65 0
0 -340 0 -340 65 0 65 0 0 215 c0 234 5 259 55 305 22 21 37 25 86 25 53 0 62
-3 91 -33 l33 -32 3 -240 3 -240 70 0 69 0 0 220 c0 247 6 275 62 310 70 43
170 12 195 -60 8 -23 12 -111 12 -252 l1 -218 65 0 65 0 0 258 c0 256 0 258
-25 309 -58 115 -205 154 -334 88 -26 -13 -53 -31 -60 -39 -12 -14 -16 -13
-43 9 -17 14 -43 32 -58 40 -36 19 -125 27 -169 16z"/>
<path d="M4700 1680 l0 -340 65 0 65 0 0 340 0 340 -65 0 -65 0 0 -340z"/>
<path d="M5820 1680 l0 -340 70 0 70 0 0 340 0 340 -70 0 -70 0 0 -340z"/>
<path d="M6200 1760 c0 -283 1 -292 59 -353 80 -87 224 -98 307 -25 l34 30 0
-36 0 -36 70 0 70 0 0 340 0 340 -70 0 -70 0 0 -229 c0 -221 -1 -229 -23 -262
-28 -41 -60 -59 -110 -59 -47 0 -88 21 -113 57 -17 25 -19 52 -22 261 l-3 232
-65 0 -64 0 0 -260z"/>
<path d="M3635 1033 c-64 -34 -102 -85 -115 -155 l-7 -38 51 0 c51 0 52 1 70
41 33 74 120 88 171 27 25 -29 33 -77 19 -112 -3 -9 -75 -103 -160 -209 -150
-187 -154 -193 -154 -239 l0 -48 215 0 215 0 0 55 0 54 -139 3 -138 3 119 150
c66 83 128 168 139 190 24 51 24 118 0 170 -19 43 -78 100 -118 116 -38 14
-135 10 -168 -8z"/>
<path d="M4040 940 l0 -110 50 0 50 0 0 55 0 55 100 0 c55 0 100 -2 100 -4 0
-4 -138 -355 -231 -589 l-19 -48 61 3 61 3 124 313 c109 277 124 321 124 373
l0 59 -210 0 -210 0 0 -110z"/>
<path d="M4905 1036 c-40 -18 -79 -55 -102 -97 -15 -29 -18 -63 -21 -240 -4
-219 2 -262 41 -320 75 -111 271 -109 345 4 l27 41 0 252 c0 283 2 272 -79
338 -33 27 -46 31 -109 33 -46 2 -83 -2 -102 -11z m165 -122 c25 -24 25 -27
28 -217 4 -221 -3 -259 -50 -283 -40 -21 -103 -13 -132 16 -20 19 -21 33 -24
227 -2 147 0 215 9 236 25 59 118 71 169 21z"/>
<path d="M5405 1036 c-42 -18 -102 -88 -114 -133 -17 -61 -16 -63 42 -63 51 0
53 1 62 32 21 69 118 97 169 49 33 -31 43 -84 24 -125 -9 -17 -81 -113 -162
-213 -144 -181 -146 -183 -146 -233 l0 -50 210 0 210 0 0 55 0 54 -136 3 -137
3 121 152 c67 83 128 165 136 182 36 69 13 193 -46 248 -53 50 -165 69 -233
39z"/>
<path d="M5905 1033 c-64 -34 -97 -77 -114 -152 l-9 -41 52 0 c51 0 52 1 70
41 32 72 115 88 170 32 26 -26 35 -79 20 -117 -3 -9 -75 -103 -160 -209 -150
-187 -154 -193 -154 -239 l0 -48 215 0 215 0 0 55 0 54 -139 3 -139 3 120 150
c66 83 129 168 139 190 24 51 24 119 0 170 -19 43 -78 100 -118 116 -38 14
-135 10 -168 -8z"/>
<path d="M6388 1030 c-47 -25 -94 -82 -106 -131 l-10 -39 54 0 c48 0 54 3 66
27 7 15 28 36 46 46 29 17 39 18 72 8 79 -23 106 -109 54 -170 -20 -24 -36
-32 -75 -37 l-49 -7 0 -43 c0 -42 1 -44 30 -44 48 0 97 -25 114 -59 44 -85
-11 -181 -105 -181 -23 0 -42 10 -71 40 -36 36 -45 40 -90 40 -47 0 -49 -1
-42 -22 33 -109 102 -162 209 -161 91 1 159 41 198 118 40 80 27 184 -29 240
l-32 33 29 28 c90 86 48 259 -76 315 -53 25 -139 24 -187 -1z"/>
<path d="M4560 355 l0 -55 55 0 55 0 0 55 0 55 -55 0 -55 0 0 -55z"/>
</g>
</svg>
